<svg xmlns="http://www.w3.org/2000/svg" viewBox="0 0 100 100">
    <title>chart</title>
    <g stroke="rgb(131, 137, 145)" fill="none" transform="rotate(-20 50 50)">
        <line x1="10" y1="10" x2="10" y2="90" stroke-width="1" />
        <line x1="5" y1="85" x2="90" y2="85" stroke-width="1" />
        <g stroke-width="0.5">
            <rect x="12" y="30" width="4" height="55" />
            <rect x="18" y="50" width="4" height="35" />
            <rect x="24" y="45" width="4" height="40" />
            <rect x="30" y="55" width="4" height="30" />
            <rect x="36" y="25" width="4" height="60" />
            <rect x="42" y="35" width="4" height="50" />
            <rect x="48" y="30" width="4" height="55" />
            <rect x="54" y="35" width="4" height="50" />
            <rect x="60" y="40" width="4" height="45" />
            <rect x="66" y="50" width="4" height="35" />
            <rect x="72" y="70" width="4" height="15" />
            <rect x="78" y="60" width="4" height="25" />
            <rect x="84" y="25" width="4" height="60" />
        </g>
        <polyline points="14,30 20,50 26,45 32,55 38,25 44,35 50,30 56,35 62,40 68,50 74,70 80,60 86,25" stroke-dasharray="2 0.5" stroke-width="0.4" />
        <g stroke-width="0.75">
            <line x1="9" y1="80" x2="11" y2="80" />
            <line x1="9" y1="75" x2="11" y2="75" />
            <line x1="9" y1="70" x2="11" y2="70" />
            <line x1="9" y1="65" x2="11" y2="65" />
            <line x1="9" y1="60" x2="11" y2="60" />
            <line x1="9" y1="55" x2="11" y2="55" />
            <line x1="9" y1="50" x2="11" y2="50" />
            <line x1="9" y1="45" x2="11" y2="45" />
            <line x1="9" y1="40" x2="11" y2="40" />
            <line x1="9" y1="35" x2="11" y2="35" />
            <line x1="9" y1="30" x2="11" y2="30" />
            <line x1="9" y1="25" x2="11" y2="25" />
            <line x1="9" y1="20" x2="11" y2="20" />
            <line x1="9" y1="15" x2="11" y2="15" />
        </g>
    </g>
</svg>