<svg xmlns="http://www.w3.org/2000/svg" viewBox="0 0 32 40" x="0px" y="0px"><title>Math</title><g><path d="M29.58,15.7H2.42a.43.43,0,0,0,0,.85H29.58a.43.43,0,0,0,0-.85Z"/><path d="M7.31,8.27H8.94l1.88,4.39a.41.41,0,0,0,.38.25h0a.42.42,0,0,0,.38-.23L16.2,3.46h7.91a.43.43,0,0,0,0-.85H15.94a.42.42,0,0,0-.38.24l-4.32,8.64L9.61,7.68a.42.42,0,0,0-.39-.26H7.31a.43.43,0,0,0,0,.85Z"/><path d="M24.44,6.13a.43.43,0,0,0-.6,0L21.12,8.87,18.39,6.13a.44.44,0,0,0-.6,0,.43.43,0,0,0,0,.61l2.73,2.73-2.73,2.72a.43.43,0,0,0,0,.61.46.46,0,0,0,.3.11.5.5,0,0,0,.3-.11l2.73-2.74,2.72,2.74a.46.46,0,0,0,.3.11.48.48,0,0,0,.3-.11.45.45,0,0,0,0-.61L21.71,9.47l2.73-2.73A.45.45,0,0,0,24.44,6.13Z"/><path d="M11.6,19.62a.43.43,0,0,0-.6,0L8.28,22.34,5.54,19.62a.42.42,0,0,0-.59,0,.43.43,0,0,0,0,.61L7.67,23,5,25.68a.41.41,0,0,0,0,.59.39.39,0,0,0,.3.13.36.36,0,0,0,.29-.13l2.74-2.72L11,26.27a.41.41,0,0,0,.6,0,.41.41,0,0,0,0-.59L8.88,23l2.72-2.72A.43.43,0,0,0,11.6,19.62Z"/><path d="M26.47,19.68l-2.68,4-2.67-4a.43.43,0,0,0-.59-.11.41.41,0,0,0-.11.59l2.86,4.28-2.86,4.3a.41.41,0,0,0,.11.59.42.42,0,0,0,.23.06.46.46,0,0,0,.36-.17l3-4.54h0l3-4.52a.41.41,0,0,0-.12-.59A.42.42,0,0,0,26.47,19.68Z"/><path d="M17.86,22.52h-1.4V21.13a.42.42,0,1,0-.84,0v1.39h-1.4a.43.43,0,0,0-.42.43.42.42,0,0,0,.42.42h1.4v1.39a.42.42,0,1,0,.84,0V23.37h1.4a.42.42,0,0,0,.42-.42A.43.43,0,0,0,17.86,22.52Z"/></g><text x="0" y="47" fill="#000000" font-size="5px" font-weight="bold" font-family="'Helvetica Neue', Helvetica, Arial-Unicode, Arial, Sans-serif">Created by muhammad</text><text x="0" y="52" fill="#000000" font-size="5px" font-weight="bold" font-family="'Helvetica Neue', Helvetica, Arial-Unicode, Arial, Sans-serif">from the Noun Project</text></svg>