<svg xmlns="http://www.w3.org/2000/svg" data-name="Layer 3" viewBox="0 0 32 40" x="0px" y="0px"><title>startup_business</title><path d="M27,18a2.9951,2.9951,0,0,0-2.8157,2H17V18h3a1,1,0,0,0,1-1V15h3.1843a3,3,0,1,0,0-2H20a1,1,0,0,0-1,1v2H17V11h6a1,1,0,0,0,1-1V7.8157a3,3,0,1,0-2,0V9H17V6a4,4,0,0,0-7.9038-.8735A4.8567,4.8567,0,0,0,8,5a5.0059,5.0059,0,0,0-5,5,4.9307,4.9307,0,0,0,.7876,2.6709,3.9937,3.9937,0,0,0,0,6.6582A4.9307,4.9307,0,0,0,3,22a5.0059,5.0059,0,0,0,5,5,4.8567,4.8567,0,0,0,1.0962-.1265A4,4,0,0,0,17,26V22h3v2.1843a3,3,0,1,0,2,0V22h2.1843A2.9947,2.9947,0,1,0,27,18Zm0-5a1,1,0,1,1-1,1A1.0013,1.0013,0,0,1,27,13ZM23,4a1,1,0,1,1-1,1A1.0013,1.0013,0,0,1,23,4ZM15,26a2,2,0,0,1-3.9993.0071,5.4379,5.4379,0,0,0,1.9558-6.2982l-1.9131.582a3.3892,3.3892,0,0,1-1.4448,4.2344l0.0032,0.0062c-0.02.01-.0411,0.0144-0.06,0.026A2.9466,2.9466,0,0,1,8,25a2.984,2.984,0,0,1-1.9116-5.2886,1,1,0,0,0-.4575-1.75,1.9907,1.9907,0,0,1-.25-3.8527,5.6124,5.6124,0,0,0,1.9315.3307,6.3222,6.3222,0,0,0,2.0428-.347,7.54,7.54,0,0,0,3.1676,2.786l0.9551-1.7568a5.7587,5.7587,0,0,1-2.3457-1.9589A8.6323,8.6323,0,0,0,12.7681,11.64l-1.5361-1.28C8.954,13.094,6.5767,12.4218,6.01,12.2075A2.9764,2.9764,0,0,1,9.5415,7.4424a1,1,0,0,0,1.4985-1.05A1.9995,1.9995,0,1,1,15,6V26Zm6,2a1,1,0,1,1,1-1A1.0013,1.0013,0,0,1,21,28Zm6-6a1,1,0,1,1,1-1A1.0013,1.0013,0,0,1,27,22Z"/><text x="0" y="47" fill="#000000" font-size="5px" font-weight="bold" font-family="'Helvetica Neue', Helvetica, Arial-Unicode, Arial, Sans-serif">Created by Adriansyah</text><text x="0" y="52" fill="#000000" font-size="5px" font-weight="bold" font-family="'Helvetica Neue', Helvetica, Arial-Unicode, Arial, Sans-serif">from the Noun Project</text></svg>