<svg xmlns:dc="http://purl.org/dc/elements/1.1/" xmlns:cc="http://creativecommons.org/ns#" xmlns:rdf="http://www.w3.org/1999/02/22-rdf-syntax-ns#" xmlns:svg="http://www.w3.org/2000/svg" xmlns="http://www.w3.org/2000/svg" xmlns:xlink="http://www.w3.org/1999/xlink" id="svg650860" viewBox="0 0 1024 768" height="768px" width="1024px" version="1.1">
    <defs id="defs650864"></defs>
    <linearGradient spreadMethod="pad" y2="30%" x2="-10%" y1="120%" x1="30%" id="3d_gradient2-logo-e6e5884a-a5c0-49a3-bc9b-b59545c89353">
      <stop id="stop650841" stop-opacity="1" stop-color="#ffffff" offset="0%"></stop>
      <stop id="stop650843" stop-opacity="1" stop-color="#000000" offset="100%"></stop>
    </linearGradient>
    <linearGradient gradientTransform="rotate(-30)" spreadMethod="pad" y2="30%" x2="-10%" y1="120%" x1="30%" id="3d_gradient3-logo-e6e5884a-a5c0-49a3-bc9b-b59545c89353">
      <stop id="stop650846" stop-opacity="1" stop-color="#ffffff" offset="0%"></stop>
      <stop id="stop650848" stop-opacity="1" stop-color="#cccccc" offset="50%"></stop>
      <stop id="stop650850" stop-opacity="1" stop-color="#000000" offset="100%"></stop>
    </linearGradient>
    <g id="logo-group">
      <image xlink:href="" id="container" x="272" y="144" width="480" height="480" style="display: none;" transform="translate(0 0)"></image>
      <g id="logo-center" transform="translate(5.684341886080802e-14 0)">
        <image xlink:href="" id="icon_container" x="0" y="0" style="display: none;"></image>
        <g id="slogan" style="font-style:oblique;font-weight:700;font-size:32px;line-height:1;font-family:'Uni Neue';font-variant-ligatures:none;text-align:center;text-anchor:middle" transform="translate(0 0)"></g>
        <g id="title" style="font-style:normal;font-weight:700;font-size:72px;line-height:1;font-family:'Comfortaa Bold Alt1';font-variant-ligatures:none;text-align:center;text-anchor:middle" transform="translate(0 0)">
          <path id="path650869" style="font-style:normal;font-weight:700;font-size:72px;line-height:1;font-family:'Comfortaa Bold Alt1';font-variant-ligatures:none;text-align:center;text-anchor:middle" d="m 376.49431,-55.152 c -0.792,-0.72 -1.656,-1.08 -2.664,-1.008 -1.44,0 -2.52,0.648 -3.312,1.872 0,0.072 0,0.072 0,0.144 -0.072,0 -0.072,0.072 -0.072,0.072 l -18.864,38.808 c -0.36,0.792 -1.008,1.152 -1.944,1.224 -0.864,0 -1.512,-0.432 -1.944,-1.224 l -19.368,-38.88 c 0,0 -0.072,-0.072 -0.072,-0.072 -0.792,-1.296 -1.872,-2.016 -3.24,-2.016 -1.08,0 -1.944,0.36 -2.664,1.08 -0.72,0.72 -1.08,1.656 -1.08,2.664 v 48.744 c 0,1.08 0.36,1.944 1.08,2.664 0.72,0.72 1.584,1.08 2.664,1.08 1.008,0 1.944,-0.36 2.664,-1.08 0.72,-0.72 1.08,-1.584 1.08,-2.664 v -25.92 c 0,-1.152 0.504,-1.8 1.656,-2.088 1.08,-0.288 1.872,0.144 2.448,1.152 l 13.104,26.208 c 0.72,1.512 1.872,2.232 3.456,2.232 1.296,0 2.304,-0.576 3.096,-1.728 0.072,-0.072 0.144,-0.144 0.144,-0.216 l 13.248,-27 c 0.504,-1.08 1.368,-1.44 2.448,-1.152 1.152,0.216 1.728,0.936 1.728,2.088 v 26.424 c 0,1.08 0.36,1.944 1.08,2.664 0.72,0.72 1.584,1.08 2.664,1.08 1.008,0 1.872,-0.36 2.592,-1.08 0.72,-0.72 1.152,-1.584 1.152,-2.664 v -48.744 c 0,-1.008 -0.36,-1.944 -1.08,-2.664 z" stroke-width="0" stroke-linejoin="miter" stroke-miterlimit="2" fill="#444950" stroke="#444950" transform="translate(0 308.77696) translate(278.4299816 43.814479999999996) scale(1.11) translate(-321.27031 56.232)"></path>
          <path id="path650871" style="font-style:normal;font-weight:700;font-size:72px;line-height:1;font-family:'Comfortaa Bold Alt1';font-variant-ligatures:none;text-align:center;text-anchor:middle" d="m 428.94069,-19.656 c 0,-3.672 -0.936,-7.128 -2.664,-10.152 -1.728,-3.024 -4.104,-5.472 -7.128,-7.2 -3.024,-1.728 -6.336,-2.664 -10.008,-2.664 -3.744,0 -7.128,0.936 -10.152,2.664 -3.024,1.728 -5.4,4.176 -7.128,7.2 -1.728,3.024 -2.592,6.408 -2.592,10.152 0,3.744 0.792,7.2 2.376,10.224 1.584,3.024 3.816,5.4 6.624,7.128 2.88,1.8 5.976,2.664 9.432,2.664 h 0.576 17.208 c 0.936,0 1.728,-0.36 2.448,-1.008 0.648,-0.648 1.008,-1.44 1.008,-2.448 V -3.6 Z m -30.96,6.912 c -1.152,-2.016 -1.656,-4.32 -1.656,-6.912 0,-2.52 0.504,-4.824 1.656,-6.912 1.152,-2.016 2.664,-3.672 4.608,-4.824 1.944,-1.152 4.104,-1.8 6.552,-1.8 2.376,0 4.536,0.648 6.48,1.8 1.944,1.152 3.456,2.808 4.608,4.824 1.08,2.088 1.656,4.392 1.656,6.912 0,2.592 -0.576,4.896 -1.656,6.912 -1.152,2.016 -2.664,3.672 -4.608,4.824 -1.944,1.152 -4.104,1.728 -6.48,1.728 -2.448,0 -4.608,-0.576 -6.552,-1.728 -1.944,-1.152 -3.456,-2.808 -4.608,-4.824 z" stroke-width="0" stroke-linejoin="miter" stroke-miterlimit="2" fill="#444950" stroke="#444950" transform="translate(0 308.77696) translate(359.45818340000005 62.19608) scale(1.11) translate(-389.26869 39.672)"></path>
          <path id="path650873" style="font-style:normal;font-weight:700;font-size:72px;line-height:1;font-family:'Comfortaa Bold Alt1';font-variant-ligatures:none;text-align:center;text-anchor:middle" d="m 441.59694,-37.944 v 6.192 17.784 c 0,2.664 0.504,5.04 1.656,7.128 1.08,2.16 2.592,3.816 4.536,5.04 1.944,1.224 4.104,1.8 6.48,1.8 h 1.296 c 1.224,0 2.232,-0.288 3.024,-1.008 0.792,-0.648 1.224,-1.512 1.224,-2.592 0,-1.008 -0.36,-1.872 -0.936,-2.592 -0.576,-0.648 -1.296,-1.008 -2.16,-1.008 h -2.448 c -1.584,0 -2.88,-0.648 -3.888,-1.944 -1.08,-1.296 -1.584,-2.88 -1.584,-4.824 v -17.784 h 6.12 c 1.008,0 1.8,-0.288 2.448,-0.864 0.576,-0.576 0.936,-1.296 0.936,-2.16 0,-0.936 -0.36,-1.728 -0.936,-2.304 -0.648,-0.576 -1.44,-0.864 -2.448,-0.864 h -6.12 v -10.368 c 0,-1.008 -0.36,-1.872 -1.008,-2.592 -0.72,-0.648 -1.584,-1.008 -2.592,-1.008 -1.08,0 -1.944,0.36 -2.592,1.008 -0.72,0.72 -1.008,1.584 -1.008,2.592 z" stroke-width="0" stroke-linejoin="miter" stroke-miterlimit="2" fill="#444950" stroke="#444950" transform="translate(0 308.77696) translate(423.0925409 48.60968) scale(1.11) translate(-441.59694 51.912)"></path>
          <path id="path650875" style="font-style:normal;font-weight:700;font-size:72px;line-height:1;font-family:'Comfortaa Bold Alt1';font-variant-ligatures:none;text-align:center;text-anchor:middle" d="m 497.28106,-37.584 c -2.664,-1.44 -5.616,-2.16 -8.928,-2.16 -2.448,0 -4.68,0.432 -6.768,1.296 -2.16,0.864 -3.96,2.016 -5.472,3.528 v -17.64 c 0,-1.08 -0.36,-1.944 -1.008,-2.664 -0.72,-0.648 -1.584,-1.008 -2.664,-1.008 -1.08,0 -1.944,0.36 -2.664,1.008 -0.72,0.72 -1.008,1.584 -1.008,2.664 V -3.6 c 0,1.08 0.288,1.944 1.008,2.664 0.72,0.72 1.584,1.008 2.664,1.008 1.08,0 1.944,-0.288 2.664,-1.008 0.648,-0.72 1.008,-1.584 1.008,-2.664 v -20.304 c 0,-1.728 0.432,-3.24 1.368,-4.68 0.936,-1.368 2.232,-2.448 3.888,-3.312 1.656,-0.792 3.528,-1.224 5.544,-1.224 3.456,0 6.192,1.008 8.28,3.024 2.088,2.016 3.168,4.896 3.168,8.784 V -3.6 c 0,1.08 0.288,1.944 1.008,2.664 0.72,0.72 1.584,1.008 2.664,1.008 1.008,0 1.872,-0.288 2.592,-1.008 0.72,-0.72 1.08,-1.584 1.08,-2.664 v -17.712 c 0,-3.888 -0.792,-7.2 -2.232,-9.936 -1.512,-2.736 -3.6,-4.896 -6.192,-6.336 z" stroke-width="0" stroke-linejoin="miter" stroke-miterlimit="2" fill="#444950" stroke="#444950" transform="translate(0 308.77696) translate(458.8035941 43.814479999999996) scale(1.11) translate(-468.76906 56.232)"></path>
          <path id="path650877" style="font-style:normal;font-weight:700;font-size:72px;line-height:1;font-family:'Comfortaa Bold Alt1';font-variant-ligatures:none;text-align:center;text-anchor:middle" d="m 598.62556,-55.368 c -0.504,-0.576 -1.224,-0.864 -2.16,-0.864 -1.008,0 -1.872,0.216 -2.448,0.576 -0.576,0.432 -1.008,1.08 -1.224,1.872 l -9.864,34.272 c -0.288,1.008 -1.008,1.584 -2.088,1.512 -1.08,0 -1.8,-0.504 -2.016,-1.584 l -9,-33.48 c -0.216,-0.72 -0.648,-1.368 -1.296,-1.8 -0.72,-0.432 -1.44,-0.648 -2.232,-0.648 -0.864,0 -1.656,0.288 -2.304,0.72 -0.72,0.504 -1.152,1.08 -1.296,1.8 l -8.928,33.12 c -0.288,1.08 -0.936,1.584 -2.016,1.584 -1.152,0.072 -1.8,-0.504 -2.088,-1.512 l -9.648,-33.624 c -0.288,-0.864 -0.792,-1.584 -1.44,-2.088 -0.648,-0.432 -1.368,-0.72 -2.232,-0.72 -1.008,0 -1.728,0.288 -2.304,0.864 -0.576,0.576 -0.792,1.368 -0.792,2.376 0,0.72 0.072,1.368 0.288,1.944 l 14.472,48.096 c 0.288,0.936 0.72,1.656 1.44,2.16 0.648,0.576 1.44,0.792 2.304,0.792 0.864,0 1.584,-0.216 2.232,-0.792 0.648,-0.576 1.08,-1.224 1.44,-2.088 0,-0.072 0.072,-0.144 0.072,-0.216 l 8.712,-33.264 c 0.288,-1.08 1.008,-1.656 2.088,-1.656 1.152,0 1.8,0.576 2.088,1.656 l 8.64,33.336 c 0,0.072 0.072,0.144 0.072,0.216 0.288,0.792 0.72,1.512 1.44,2.016 0.648,0.576 1.368,0.792 2.304,0.792 0.864,0 1.584,-0.216 2.232,-0.792 0.648,-0.576 1.08,-1.224 1.44,-2.16 0,0 0.072,-0.072 0.072,-0.144 l 14.472,-47.952 c 0.144,-0.576 0.288,-1.296 0.288,-2.016 0,-0.936 -0.288,-1.728 -0.72,-2.304 z" stroke-width="0" stroke-linejoin="miter" stroke-miterlimit="2" fill="#a3a9b1" stroke="#a3a9b1" transform="translate(0 308.77696) translate(535.9269491 43.814479999999996) scale(1.11) translate(-533.24956 56.232)"></path>
          <path id="path650879" style="font-style:normal;font-weight:700;font-size:72px;line-height:1;font-family:'Comfortaa Bold Alt1';font-variant-ligatures:none;text-align:center;text-anchor:middle" d="m 635.09356,-37.584 c -2.664,-1.44 -5.616,-2.16 -8.928,-2.16 -2.448,0 -4.68,0.432 -6.768,1.296 -2.16,0.864 -3.96,2.016 -5.472,3.528 v -17.64 c 0,-1.08 -0.36,-1.944 -1.008,-2.664 -0.72,-0.648 -1.584,-1.008 -2.664,-1.008 -1.08,0 -1.944,0.36 -2.664,1.008 -0.72,0.72 -1.008,1.584 -1.008,2.664 V -3.6 c 0,1.08 0.288,1.944 1.008,2.664 0.72,0.72 1.584,1.008 2.664,1.008 1.08,0 1.944,-0.288 2.664,-1.008 0.648,-0.72 1.008,-1.584 1.008,-2.664 v -20.304 c 0,-1.728 0.432,-3.24 1.368,-4.68 0.936,-1.368 2.232,-2.448 3.888,-3.312 1.656,-0.792 3.528,-1.224 5.544,-1.224 3.456,0 6.192,1.008 8.28,3.024 2.088,2.016 3.168,4.896 3.168,8.784 V -3.6 c 0,1.08 0.288,1.944 1.008,2.664 0.72,0.72 1.584,1.008 2.664,1.008 1.008,0 1.872,-0.288 2.592,-1.008 0.72,-0.72 1.08,-1.584 1.08,-2.664 v -17.712 c 0,-3.888 -0.792,-7.2 -2.232,-9.936 -1.512,-2.736 -3.6,-4.896 -6.192,-6.336 z" stroke-width="0" stroke-linejoin="miter" stroke-miterlimit="2" fill="#a3a9b1" stroke="#a3a9b1" transform="translate(0 308.77696) translate(622.8754691 43.814479999999996) scale(1.11) translate(-606.58156 56.232)"></path>
          <path id="path650881" style="font-style:normal;font-weight:700;font-size:72px;line-height:1;font-family:'Comfortaa Bold Alt1';font-variant-ligatures:none;text-align:center;text-anchor:middle" d="m 657.52831,-38.376 c -0.72,0.72 -1.008,1.584 -1.008,2.664 v 32.04 c 0,1.08 0.288,1.944 1.008,2.664 0.72,0.72 1.584,1.008 2.664,1.008 1.08,0 1.944,-0.288 2.664,-1.008 0.648,-0.72 1.008,-1.584 1.008,-2.664 v -32.04 c 0,-1.08 -0.36,-1.944 -1.008,-2.664 -0.72,-0.648 -1.584,-1.008 -2.664,-1.008 -1.08,0 -1.944,0.36 -2.664,1.008 z" stroke-width="0" stroke-linejoin="miter" stroke-miterlimit="2" fill="#a3a9b1" stroke="#a3a9b1" transform="translate(0 308.77696) translate(683.8574816 62.51575999999999) scale(1.11) translate(-656.52031 39.384)"></path>
          <path id="path650883" style="font-style:normal;font-weight:700;font-size:72px;line-height:1;font-family:'Comfortaa Bold Alt1';font-variant-ligatures:none;text-align:center;text-anchor:middle" d="m 707.11719,-3.384 c 0,-2.232 -1.152,-3.384 -3.384,-3.384 h -18.288 l 20.304,-26.928 c 0.432,-0.576 0.648,-1.296 0.648,-2.304 0,-2.232 -1.152,-3.384 -3.384,-3.384 h -24.552 c -2.304,0 -3.384,1.152 -3.384,3.384 0,2.304 1.08,3.384 3.384,3.384 h 18.36 l -20.376,26.928 c -0.432,0.576 -0.648,1.368 -0.648,2.304 0,2.304 1.08,3.384 3.384,3.384 h 24.552 c 2.232,0 3.384,-1.08 3.384,-3.384 z" stroke-width="0" stroke-linejoin="miter" stroke-miterlimit="2" fill="#a3a9b1" stroke="#a3a9b1" transform="translate(0 308.77696) translate(710.0056183999999 62.51575999999999) scale(1.11) translate(-675.07719 39.384)"></path>
        </g>
        <image xlink:href="" id="icon" x="0" y="0" style="display: none;"></image>
      </g>
    </g>
  </svg>