<svg xmlns="http://www.w3.org/2000/svg" data-name="Layer 1" viewBox="0 0 100 125" x="0px" y="0px"><title>a</title><path d="M90.049,8.314H9.951a5.128,5.128,0,0,0-5.122,5.122V68.8a5.128,5.128,0,0,0,5.122,5.122H41.706a10.765,10.765,0,0,1-10.683,9.557h-6.5a1.564,1.564,0,0,0-1.562,1.562v5.081a1.563,1.563,0,0,0,1.562,1.562H75.839A1.564,1.564,0,0,0,77.4,90.124V85.043a1.564,1.564,0,0,0-1.563-1.562h-6.5a10.765,10.765,0,0,1-10.683-9.557H90.049A5.128,5.128,0,0,0,95.171,68.8V13.436A5.128,5.128,0,0,0,90.049,8.314Zm-80.1,2.4h80.1a2.721,2.721,0,0,1,2.718,2.718v51.1H7.233v-51.1A2.721,2.721,0,0,1,9.951,10.718ZM75,89.282H25.37v-3.4H75Zm-13.221-5.8H38.59a13.159,13.159,0,0,0,5.532-9.557H56.245A13.158,13.158,0,0,0,61.776,83.481ZM90.049,71.519H9.951A2.72,2.72,0,0,1,7.233,68.8V66.943H92.767V68.8A2.72,2.72,0,0,1,90.049,71.519ZM32.6,30.733a3.972,3.972,0,0,0,2.26-.7l5.884,4.34a10.771,10.771,0,0,0,1.336,12.863l-7.032,5.788A3.992,3.992,0,1,0,36.4,54.572l7.229-5.95a10.767,10.767,0,0,0,11.143.97L57.941,54.7a3.985,3.985,0,1,0,1.642-1.262l-3.057-4.936a10.825,10.825,0,0,0,3.923-5.874l11.282,1.8a4,4,0,1,0,.509-2.006L60.772,40.6c.015-.227.024-.454.024-.684a10.759,10.759,0,0,0-3.226-7.688l6.889-8.476a4,4,0,1,0-1.266-1.709l-7.222,8.884a10.775,10.775,0,0,0-14.008,1.789L36.2,28.46a3.994,3.994,0,1,0-3.6,2.273Zm30.446,26.4A1.933,1.933,0,1,1,61.108,55.2,1.936,1.936,0,0,1,63.041,57.132ZM75.724,42.439a1.933,1.933,0,1,1-1.933,1.933A1.936,1.936,0,0,1,75.724,42.439ZM66.919,18.672a1.933,1.933,0,1,1-1.933,1.933A1.935,1.935,0,0,1,66.919,18.672Zm-34.1,39.6a1.933,1.933,0,1,1,1.933-1.933A1.935,1.935,0,0,1,32.82,58.27ZM50,31.177a8.735,8.735,0,1,1-8.735,8.735A8.744,8.744,0,0,1,50,31.177ZM32.6,24.806a1.933,1.933,0,1,1-1.933,1.933A1.936,1.936,0,0,1,32.6,24.806Zm16.374,9.747A1.031,1.031,0,0,1,50,33.523a6.348,6.348,0,0,1,5.459,3.067,1.031,1.031,0,0,1-1.76,1.073A4.3,4.3,0,0,0,50,35.584,1.032,1.032,0,0,1,48.969,34.553Zm6.376,4.271a1.031,1.031,0,0,1,1.044,1.017v.071a1.031,1.031,0,0,1-2.061,0v-.044A1.031,1.031,0,0,1,55.345,38.824Z"/><text x="0" y="115" fill="#000000" font-size="5px" font-weight="bold" font-family="'Helvetica Neue', Helvetica, Arial-Unicode, Arial, Sans-serif">Created by Good Father</text><text x="0" y="120" fill="#000000" font-size="5px" font-weight="bold" font-family="'Helvetica Neue', Helvetica, Arial-Unicode, Arial, Sans-serif">from the Noun Project</text></svg>